<svg width="1281" height="128" viewBox="0 0 1281 128" fill="none" xmlns="http://www.w3.org/2000/svg">
<path fill-rule="evenodd" clip-rule="evenodd" d="M0 12.9557L53.375 31.992C106.75 51.0283 213.5 89.1009 320.25 95.4463C427 101.792 533.75 76.41 640.5 51.0283C747.25 25.6466 854 0.264893 960.75 0.264893C1067.5 0.264893 1174.25 25.6466 1227.63 38.3375L1281 51.0283V127.173H1227.63C1174.25 127.173 1067.5 127.173 960.75 127.173C854 127.173 747.25 127.173 640.5 127.173C533.75 127.173 427 127.173 320.25 127.173C213.5 127.173 106.75 127.173 53.375 127.173H0V12.9557Z" fill="#C4BD16"/>
</svg>
